<?xml version="1.0" encoding="UTF-8"?>
<svg id="_Слой_2" data-name="Слой 2" xmlns="http://www.w3.org/2000/svg" viewBox="0 0 35.05 15.44">
  <defs>
    <style>
      .cls-1 {
        fill: #fff;
        fill-rule: evenodd;
        stroke-width: 0px;
      }
    </style>
  </defs>
  <g id="arrow">
    <path class="cls-1" d="m8.74.23c-.32-.3-.84-.3-1.15,0L.24,7.16c-.32.3-.32.79,0,1.09l7.35,6.93c.32.3.84.3,1.15,0,.32-.3.32-.79,0-1.09L1.97,7.7,8.74,1.31c.32-.3.32-.79,0-1.09Zm26.07,6.97L27.46.26c-.32-.3-.84-.3-1.15,0-.32.3-.32.79,0,1.09l6.77,6.39-6.77,6.39c-.32.3-.32.79,0,1.09.32.3.84.3,1.15,0l7.35-6.93c.32-.3.32-.79,0-1.09Z"/>
  </g>
</svg>