<?xml version="1.0" encoding="UTF-8"?>
<svg id="_Слой_2" data-name="Слой 2" xmlns="http://www.w3.org/2000/svg" xmlns:xlink="http://www.w3.org/1999/xlink" viewBox="0 0 114 40">
  <defs>
    <style>
      .cls-1 {
        clip-path: url(#clippath);
      }

      .cls-2 {
        fill: none;
      }

      .cls-2, .cls-3, .cls-4 {
        stroke-width: 0px;
      }

      .cls-3 {
        fill: #7fcb2c;
      }

      .cls-4 {
        fill: #fff;
      }
    </style>
    <clipPath id="clippath">
      <rect class="cls-2" y="0" width="114" height="40"/>
    </clipPath>
  </defs>
  <g id="logo">
    <g class="cls-1">
      <path class="cls-3" d="m59.37,40h-2.37V0h2.37v39.99Z"/>
    </g>
    <path class="cls-4" d="m36.81,0h0s-3.56,3.54-3.56,3.54V0h-3.56S29.69,0,29.69,0l-5.94,5.88v15.29h2.37V7.06l4.75-4.71v18.82h2.37V7.06l4.75-4.71v18.82h2.37V0h-3.56Z"/>
    <path class="cls-4" d="m0,21.18h9.5V0h-3.56s0,0,0,0L0,5.88h0v15.29ZM7.13,2.35v16.47H2.38V7.06L7.13,2.35"/>
    <path class="cls-4" d="m21.37,0h-9.5v21.18h9.5V0Zm-7.12,2.35h4.75v16.47h-4.75V2.35Z"/>
    <path class="cls-4" d="m0,25.88h40.37v-2.35H0v2.35Z"/>
    <path class="cls-4" d="m0,28.24v11.76h2.37v-2.35h14.25v-9.41H0Zm14.25,7.06H2.38v-4.71h11.87v4.71Z"/>
    <path class="cls-4" d="m19,28.24v9.41h9.5v2.35h2.37v-2.35h9.5v-9.41h-21.37Zm2.37,2.35h7.12v4.71h-7.12v-4.71Zm16.62,4.71h-7.12v-4.71h7.12v4.71"/>
    <path class="cls-4" d="m77.9,26.47h-4.27v-10.59h7.05v1.84h-4.97v2.14h2.19c2.14,0,3.46,1.37,3.46,3.3s-1.3,3.3-3.46,3.3h0Zm-.1-4.76h-2.08v2.92h2.08c.93,0,1.48-.58,1.48-1.46s-.55-1.46-1.48-1.46Z"/>
    <path class="cls-4" d="m90.25,26.47l-.63-1.87h-3.79l-.64,1.87h-2.17l3.88-10.59h1.63l3.89,10.59h-2.17Zm-2.49-7.46l-1.35,3.85h2.65l-1.3-3.85Z"/>
    <path class="cls-4" d="m100.29,26.47v-4.43h-3.61v4.43h-2.08v-10.59h2.08v4.33h3.61v-4.33h2.08v10.59h-2.08Z"/>
    <path class="cls-4" d="m105.63,26.47v-10.59h2.08v5.03l3.44-5.03h2.49l-3.58,4.97,3.94,5.62h-2.54l-3.74-5.53v5.53h-2.08Z"/>
  </g>
</svg>