<?xml version="1.0" encoding="UTF-8"?>
<svg id="_Слой_2" data-name="Слой 2" xmlns="http://www.w3.org/2000/svg" viewBox="0 0 458 83.28">
  <defs>
    <style>
      .cls-1 {
        fill: #fff;
        stroke-width: 0px;
      }
    </style>
  </defs>
  <g id="snoska_vklad">
    <path class="cls-1" d="m.96,11.45h1.12V1.3h5.77v10.15h1.12V.24H.96v11.21Zm11.38-1.57c.67,1.07,1.81,1.76,3.24,1.76,2.26,0,4.13-1.83,4.13-4.2s-1.87-4.2-4.13-4.2c-1.43,0-2.56.69-3.24,1.76v-1.57h-1.06v11.21h1.06v-4.77Zm3.16-5.6c1.78,0,3.16,1.39,3.16,3.17s-1.38,3.17-3.16,3.17-3.16-1.39-3.16-3.17,1.38-3.17,3.16-3.17Zm9.67,7.37c2.34,0,4.21-1.83,4.21-4.2s-1.87-4.2-4.21-4.2-4.21,1.83-4.21,4.2,1.87,4.2,4.21,4.2Zm0-7.37c1.78,0,3.16,1.39,3.16,3.17s-1.38,3.17-3.16,3.17-3.16-1.39-3.16-3.17,1.38-3.17,3.16-3.17Zm12.7,9.32h1.06v-3.17h-1.28V3.44h-1.06v6.98h-4.45V3.44h-1.06v8.01h6.79v2.15Zm6.16-1.95c1.62,0,2.85-.75,3.52-1.84l-.93-.54c-.43.77-1.31,1.36-2.58,1.36-1.7,0-2.96-1.01-3.19-2.64h7.03c.02-.16.03-.34.03-.5,0-2.19-1.52-4.23-3.97-4.23s-4.18,1.84-4.18,4.2,1.73,4.2,4.26,4.2Zm-.08-7.37c1.38,0,2.66.91,2.88,2.67h-5.97c.21-1.57,1.41-2.67,3.09-2.67Zm6.71,3.68h4.61v3.49h1.06V3.44h-1.06v3.49h-4.61v-3.49h-1.06v8.01h1.06v-3.49Zm9.75,3.49h1.06v-6.98h2.84v-1.02h-6.73v1.02h2.84v6.98Zm6.19-3.49h4.61v3.49h1.06V3.44h-1.06v3.49h-4.61v-3.49h-1.06v8.01h1.06v-3.49Zm13.82,1.01c0-1.47-1.22-2.48-2.67-2.48h-2.19v-3.04h-1.06v8.01h3.25c1.46,0,2.67-1.01,2.67-2.48Zm-4.87-1.46h2.19c.86,0,1.62.54,1.62,1.46s-.75,1.46-1.62,1.46h-2.19v-2.91Zm7.05-4.07h-1.06v8.01h1.06V3.44Zm6.02,8.2c1.62,0,2.85-.75,3.52-1.84l-.93-.54c-.43.77-1.31,1.36-2.58,1.36-1.7,0-2.96-1.01-3.19-2.64h7.03c.02-.16.03-.34.03-.5,0-2.19-1.52-4.23-3.97-4.23s-4.18,1.84-4.18,4.2,1.73,4.2,4.26,4.2Zm-.08-7.37c1.38,0,2.66.91,2.88,2.67h-5.97c.21-1.57,1.41-2.67,3.09-2.67Zm16.97,5.28l-.88-.51c-.51.93-1.49,1.57-2.71,1.57-1.78,0-3.16-1.39-3.16-3.17s1.38-3.17,3.16-3.17c1.2,0,2.21.62,2.64,1.57l.86-.5c-.58-1.26-1.92-2.1-3.51-2.1-2.42,0-4.21,1.83-4.21,4.2s1.79,4.2,4.21,4.2c1.57,0,2.93-.82,3.59-2.08Zm3.51,1.89h1.06v-6.98h2.84v-1.02h-6.73v1.02h2.84v6.98Zm8.55.19c1.43,0,2.56-.69,3.24-1.76v1.57h1.06V3.44h-1.06v1.57c-.67-1.07-1.81-1.76-3.24-1.76-2.26,0-4.13,1.83-4.13,4.2s1.87,4.2,4.13,4.2Zm.08-7.37c1.78,0,3.16,1.39,3.16,3.17s-1.38,3.17-3.16,3.17-3.16-1.39-3.16-3.17,1.38-3.17,3.16-3.17Zm12.85,4.93c0-.86-.45-1.55-1.31-1.87.62-.37.93-.98.93-1.75,0-1.22-.85-2.15-2.45-2.15h-3.57v8.01h3.89c1.7,0,2.51-1.01,2.51-2.24Zm-5.35-4.74h2.51c.91,0,1.39.45,1.39,1.18,0,.8-.46,1.25-1.39,1.25h-2.51v-2.43Zm0,3.46h2.84c.95,0,1.46.48,1.46,1.22,0,.8-.5,1.28-1.46,1.28h-2.84v-2.5Zm8.1-.34l4,3.86h1.41l-4.29-4.16,4.13-3.84h-1.44l-3.81,3.54v-3.54h-1.06v8.01h1.06v-3.86Zm12.41-2.31v6.16h1.06V3.44h-.9l-4.77,6.16V3.44h-1.06v8.01h.9l4.77-6.16Zm9.72,6.71c-.43,1.04-1.15,1.78-2.19,1.67v.99c1.44.11,2.63-.93,3.24-2.47l3.43-8.74h-1.12l-2.59,6.71-3.01-6.71h-1.12l3.59,8.05-.21.5Zm6.77-4.4l4,3.86h1.41l-4.29-4.16,4.13-3.84h-1.44l-3.81,3.54v-3.54h-1.06v8.01h1.06v-3.86Zm9.84,4.05c1.43,0,2.56-.69,3.24-1.76v1.57h1.06V3.44h-1.06v1.57c-.67-1.07-1.81-1.76-3.24-1.76-2.26,0-4.13,1.83-4.13,4.2s1.87,4.2,4.13,4.2Zm.08-7.37c1.78,0,3.16,1.39,3.16,3.17s-1.38,3.17-3.16,3.17-3.16-1.39-3.16-3.17,1.38-3.17,3.16-3.17Zm10.47,3.06c.67-.37,1.01-1.02,1.01-1.79,0-1.22-1.01-2.29-2.77-2.29-1.47,0-2.42.72-2.88,1.71l.88.51c.34-.82,1.07-1.2,2-1.2,1.07,0,1.71.59,1.71,1.33,0,.8-.54,1.3-1.47,1.3h-.85v1.02h1.17c.94,0,1.54.53,1.54,1.26,0,.8-.66,1.43-1.94,1.43s-1.99-.61-2.27-1.43l-.9.53c.4,1.02,1.33,1.92,3.17,1.92,2.02,0,3-1.15,3-2.39,0-.88-.5-1.59-1.39-1.92Zm6.6,4.31c1.43,0,2.56-.69,3.24-1.76v1.57h1.06V3.44h-1.06v1.57c-.67-1.07-1.81-1.76-3.24-1.76-2.26,0-4.13,1.83-4.13,4.2s1.87,4.2,4.13,4.2Zm.08-7.37c1.78,0,3.16,1.39,3.16,3.17s-1.38,3.17-3.16,3.17-3.16-1.39-3.16-3.17,1.38-3.17,3.16-3.17Zm7.5,3.68h4.61v3.49h1.06V3.44h-1.06v3.49h-4.61v-3.49h-1.06v8.01h1.06v-3.49Zm13.82,1.01c0-1.47-1.22-2.48-2.68-2.48h-2.19v-3.04h-1.06v8.01h3.25c1.46,0,2.68-1.01,2.68-2.48Zm-4.87-1.46h2.19c.86,0,1.62.54,1.62,1.46s-.75,1.46-1.62,1.46h-2.19v-2.91Zm7.05-4.07h-1.06v8.01h1.06V3.44Zm9.97,8.2c1.57,0,2.93-.82,3.59-2.08l-.88-.51c-.51.93-1.49,1.57-2.71,1.57-1.78,0-3.16-1.39-3.16-3.17s1.38-3.17,3.16-3.17c1.2,0,2.21.62,2.64,1.57l.86-.5c-.58-1.26-1.92-2.1-3.51-2.1-2.42,0-4.21,1.83-4.21,4.2s1.79,4.2,4.21,4.2Zm11.53.35c-.43,1.04-1.15,1.78-2.19,1.67v.99c1.44.11,2.63-.93,3.24-2.47l3.43-8.74h-1.12l-2.59,6.71-3.01-6.71h-1.12l3.59,8.05-.21.5Zm8.77-3.11c.83,0,1.67-.16,2.29-.48v3.04h1.06V3.44h-1.06v3.99c-.7.3-1.52.46-2.32.46-1.38,0-2.13-.5-2.13-1.89v-2.56h-1.06v2.56c0,1.92,1.15,2.88,3.22,2.88Zm9.36,2.75c1.62,0,2.85-.75,3.52-1.84l-.93-.54c-.43.77-1.31,1.36-2.58,1.36-1.7,0-2.96-1.01-3.19-2.64h7.03c.02-.16.03-.34.03-.5,0-2.19-1.52-4.23-3.97-4.23s-4.18,1.84-4.18,4.2,1.73,4.2,4.26,4.2Zm-.08-7.37c1.38,0,2.66.91,2.88,2.67h-5.97c.21-1.57,1.41-2.67,3.09-2.67Zm7.33,7.17h1.06v-6.98h2.84v-1.02h-6.73v1.02h2.84v6.98Zm8.63.19c2.34,0,4.21-1.83,4.21-4.2s-1.87-4.2-4.21-4.2-4.21,1.83-4.21,4.2,1.87,4.2,4.21,4.2Zm0-7.37c1.78,0,3.16,1.39,3.16,3.17s-1.38,3.17-3.16,3.17-3.16-1.39-3.16-3.17,1.38-3.17,3.16-3.17Zm7,.78l2.8,4.55h.13l2.8-4.55v6.39h1.06V3.44h-1.22l-2.71,4.39-2.71-4.39h-1.22v8.01h1.06v-6.39Zm14.09,2.9h4.61v3.49h1.06V3.44h-1.06v3.49h-4.61v-3.49h-1.06v8.01h1.06v-3.49Zm11.53,3.68c1.43,0,2.56-.69,3.24-1.76v1.57h1.06V3.44h-1.06v1.57c-.67-1.07-1.81-1.76-3.24-1.76-2.26,0-4.13,1.83-4.13,4.2s1.87,4.2,4.13,4.2Zm.08-7.37c1.78,0,3.16,1.39,3.16,3.17s-1.38,3.17-3.16,3.17-3.16-1.39-3.16-3.17,1.38-3.17,3.16-3.17Zm13.07-.83h-5.73v3.96c0,1.57-.3,2.35-.82,3.03h-.98v3.17h1.06v-2.15h6.54v2.15h1.06v-3.17h-1.12V3.44Zm-1.06,6.98h-4.21c.38-.77.59-1.71.59-3.03v-2.93h3.62v5.96Zm7.43-6.26c-.91,0-2.23.35-3.03,1.41.3-1.12.91-1.71,2.4-2.35,1.57-.69,3.24-1.14,3.49-2.74l-.83-.48c-.19,1.36-1.55,1.59-3.22,2.39-2.59,1.25-3.08,2.56-3.08,5.14s1.78,4.12,4.04,4.12,3.92-1.59,3.92-3.75-1.57-3.73-3.7-3.73Zm-.22,6.42c-1.63,0-2.92-1.15-2.92-2.79s1.6-2.61,3-2.61c1.7,0,2.79,1.14,2.79,2.71s-1.19,2.69-2.87,2.69Zm12.45-5.57c-.67-1.07-1.81-1.76-3.24-1.76-2.26,0-4.13,1.83-4.13,4.2s1.87,4.2,4.13,4.2c1.43,0,2.56-.69,3.24-1.76v1.57h1.06V3.44h-1.06v1.57Zm-3.16,5.6c-1.78,0-3.16-1.39-3.16-3.17s1.38-3.17,3.16-3.17,3.16,1.39,3.16,3.17-1.38,3.17-3.16,3.17Zm11.54-3.28c.62-.37.93-.98.93-1.75,0-1.22-.85-2.15-2.45-2.15h-3.57v8.01h3.89c1.7,0,2.51-1.01,2.51-2.24,0-.86-.45-1.55-1.31-1.87Zm-4.04-2.87h2.51c.91,0,1.39.45,1.39,1.18,0,.8-.46,1.25-1.39,1.25h-2.51v-2.43Zm2.83,5.96h-2.83v-2.5h2.83c.95,0,1.46.48,1.46,1.22,0,.8-.5,1.28-1.46,1.28Zm10.52-6.98h-1.44l-3.81,3.54v-3.54h-1.06v8.01h1.06v-3.86l4,3.86h1.41l-4.29-4.16,4.13-3.84Zm2.54,6.16V3.44h-1.06v8.01h.9l4.77-6.16v6.16h1.06V3.44h-.9l-4.77,6.16Zm11.03-8.34l.29.96,2.51-.75v9.98h1.12V.24h-.96l-2.96,1.02Zm6.02,12.43h.96l.96-3.6h-1.28l-.64,3.6ZM377.51.05c-2.74,0-4.24,2.34-4.24,5.8s1.51,5.8,4.24,5.8,4.24-2.34,4.24-5.8-1.51-5.8-4.24-5.8Zm0,10.5c-1.97,0-3.12-1.71-3.12-4.71s1.15-4.71,3.12-4.71,3.12,1.71,3.12,4.71-1.15,4.71-3.12,4.71Zm13.61-9.06l-7.51,8.44.67.38,7.53-8.44-.69-.38Zm-1.09,5.35c-1.41,0-2.45,1.07-2.45,2.4s1.04,2.4,2.45,2.4,2.45-1.07,2.45-2.4-1.04-2.4-2.45-2.4Zm0,3.84c-.85,0-1.43-.64-1.43-1.44s.58-1.44,1.43-1.44,1.43.64,1.43,1.44-.58,1.44-1.43,1.44Zm-4.53-5.83c1.44,0,2.45-1.07,2.45-2.4s-1.04-2.4-2.45-2.4-2.45,1.07-2.45,2.4,1.04,2.4,2.45,2.4Zm0-3.84c.85,0,1.43.64,1.43,1.44s-.58,1.44-1.43,1.44-1.43-.64-1.43-1.44.58-1.44,1.43-1.44Zm13.06,10.44h1.06v-6.98h4.07v-1.02h-5.13v8.01Zm9.86-8.2c-2.34,0-4.21,1.83-4.21,4.2s1.87,4.2,4.21,4.2,4.21-1.83,4.21-4.2-1.87-4.2-4.21-4.2Zm0,7.37c-1.78,0-3.16-1.39-3.16-3.17s1.38-3.17,3.16-3.17,3.16,1.39,3.16,3.17-1.38,3.17-3.16,3.17Zm12.35-7.17h-5.73v3.96c0,1.57-.3,2.35-.82,3.03h-.98v3.17h1.06v-2.15h6.54v2.15h1.06v-3.17h-1.12V3.44Zm-1.06,6.98h-4.21c.38-.77.59-1.71.59-3.03v-2.93h3.62v5.96Zm7.28-7.17c-2.34,0-4.21,1.83-4.21,4.2s1.87,4.2,4.21,4.2,4.21-1.83,4.21-4.2-1.87-4.2-4.21-4.2Zm0,7.37c-1.78,0-3.16-1.39-3.16-3.17s1.38-3.17,3.16-3.17,3.16,1.39,3.16,3.17-1.38,3.17-3.16,3.17Zm11.04-3.28c.62-.37.93-.98.93-1.75,0-1.22-.85-2.15-2.45-2.15h-3.57v8.01h3.89c1.7,0,2.51-1.01,2.51-2.24,0-.86-.45-1.55-1.31-1.87Zm-4.04-2.87h2.51c.91,0,1.39.45,1.39,1.18,0,.8-.46,1.25-1.39,1.25h-2.51v-2.43Zm2.84,5.96h-2.84v-2.5h2.84c.95,0,1.46.48,1.46,1.22,0,.8-.5,1.28-1.46,1.28Zm7.46-3.94h-2.19v-3.04h-1.06v8.01h3.25c1.46,0,2.68-1.01,2.68-2.48s-1.22-2.48-2.68-2.48Zm0,3.94h-2.19v-2.91h2.19c.86,0,1.62.54,1.62,1.46s-.75,1.46-1.62,1.46Zm3.8,1.02h1.06V3.44h-1.06v8.01Zm6.79-4.15l2.92-3.86h-1.27l-2.29,3.03-2.29-3.03h-1.27l2.93,3.86-3.14,4.15h1.27l2.5-3.3,2.5,3.3h1.27l-3.12-4.15ZM7.53,22.65H1.79v3.96c0,1.57-.3,2.35-.82,3.03h-.98v3.17h1.06v-2.15h6.54v2.15h1.06v-3.17h-1.12v-6.98Zm-1.06,6.98H2.26c.38-.77.59-1.71.59-3.03v-2.93h3.62v5.96Zm5.95-2.39v-3.57h3.62v6.98h1.06v-8.01h-5.73v4.6c0,2.03-.66,2.53-1.79,2.42v.99c1.6.11,2.85-.56,2.85-3.41Zm8.84.3l-2.53,3.11h1.35l2.47-3.07h1.38v3.07h1.06v-8.01h-3.25c-1.46,0-2.67,1.01-2.67,2.48,0,1.31.96,2.23,2.21,2.42Zm.46-3.87h2.19v2.91h-2.19c-.86,0-1.62-.54-1.62-1.46s.75-1.46,1.62-1.46Zm9.49-1.02v8.01h1.06v-3.86l4,3.86h1.41l-4.29-4.16,4.13-3.84h-1.44l-3.81,3.54v-3.54h-1.06Zm7.32,8.01c1.6.11,2.85-.56,2.85-3.41v-3.57h3.62v6.98h1.06v-8.01h-5.73v4.6c0,2.03-.66,2.53-1.79,2.42v.99Zm15.42-6.16v6.16h1.06v-8.01h-.9l-4.77,6.16v-6.16h-1.06v8.01h.9l4.77-6.16Zm7.07,6.36c1.62,0,2.85-.75,3.52-1.84l-.93-.54c-.43.77-1.31,1.36-2.58,1.36-1.7,0-2.96-1.01-3.19-2.64h7.03c.02-.16.03-.34.03-.5,0-2.19-1.52-4.23-3.97-4.23s-4.18,1.84-4.18,4.2,1.73,4.2,4.26,4.2Zm-.08-7.37c1.38,0,2.66.91,2.88,2.67h-5.97c.21-1.57,1.41-2.67,3.09-2.67Zm11.33,7.17h1.06v-8.01h-1.06v3.49h-4.61v-3.49h-1.06v8.01h1.06v-3.49h4.61v3.49Zm2.3-6.98h2.84v6.98h1.06v-6.98h2.84v-1.02h-6.73v1.02Zm11.47,7.17c2.34,0,4.21-1.83,4.21-4.2s-1.87-4.2-4.21-4.2-4.21,1.83-4.21,4.2,1.87,4.2,4.21,4.2Zm0-7.37c1.78,0,3.16,1.39,3.16,3.17s-1.38,3.17-3.16,3.17-3.16-1.39-3.16-3.17,1.38-3.17,3.16-3.17Zm5.94,7.17h3.89c1.7,0,2.51-1.01,2.51-2.24,0-.86-.45-1.55-1.31-1.87.62-.37.93-.98.93-1.75,0-1.22-.85-2.15-2.45-2.15h-3.57v8.01Zm1.06-6.98h2.51c.91,0,1.39.45,1.39,1.18,0,.8-.46,1.25-1.39,1.25h-2.51v-2.43Zm0,3.46h2.84c.95,0,1.46.48,1.46,1.22,0,.8-.5,1.28-1.46,1.28h-2.84v-2.5Zm10.95-4.48v8.01h1.06v-3.86l4,3.86h1.41l-4.29-4.16,4.13-3.84h-1.44l-3.81,3.54v-3.54h-1.06Zm15.19,8.01v-8.01h-1.06v1.57c-.67-1.07-1.81-1.76-3.24-1.76-2.26,0-4.13,1.83-4.13,4.2s1.87,4.2,4.13,4.2c1.43,0,2.56-.69,3.24-1.76v1.57h1.06Zm-4.21-.83c-1.78,0-3.16-1.39-3.16-3.17s1.38-3.17,3.16-3.17,3.16,1.39,3.16,3.17-1.38,3.17-3.16,3.17Zm12.19-7.17h-6.73v1.02h2.84v6.98h1.06v-6.98h2.83v-1.02Zm.55,4c0,2.42,1.73,4.2,4.26,4.2,1.62,0,2.85-.75,3.52-1.84l-.93-.54c-.43.77-1.31,1.36-2.58,1.36-1.7,0-2.96-1.01-3.19-2.64h7.03c.02-.16.03-.34.03-.5,0-2.19-1.52-4.23-3.97-4.23s-4.18,1.84-4.18,4.2Zm4.18-3.17c1.38,0,2.66.91,2.88,2.67h-5.97c.21-1.57,1.41-2.67,3.09-2.67Zm5.66-.83v8.01h1.06v-6.98h4.07v-1.02h-5.13Zm5.65,4c0,2.37,1.87,4.2,4.21,4.2s4.21-1.83,4.21-4.2-1.87-4.2-4.21-4.2-4.21,1.83-4.21,4.2Zm4.21-3.17c1.78,0,3.16,1.39,3.16,3.17s-1.38,3.17-3.16,3.17-3.16-1.39-3.16-3.17,1.38-3.17,3.16-3.17Zm6.97.74v-1.57h-1.06v11.21h1.06v-4.77c.67,1.07,1.81,1.76,3.24,1.76,2.26,0,4.13-1.83,4.13-4.2s-1.87-4.2-4.13-4.2c-1.43,0-2.56.69-3.24,1.76Zm6.31,2.43c0,1.78-1.38,3.17-3.16,3.17s-3.16-1.39-3.16-3.17,1.38-3.17,3.16-3.17,3.16,1.39,3.16,3.17Zm9.52,4v-8.01h-.9l-4.77,6.16v-6.16h-1.06v8.01h.9l4.77-6.16v6.16h1.06Zm8.95,0v-8.01h-.9l-4.77,6.16v-6.16h-1.06v8.01h.9l4.77-6.16v6.16h1.06Zm10.57-7.83l-1.76,2.88,1.76,2.88h1.31l-1.76-2.88,1.76-2.88h-1.31Zm-1.25,0h-1.31l-1.76,2.88,1.76,2.88h1.31l-1.76-2.88,1.76-2.88Zm4.57-3.38v11.21h1.12v-5.24h6.09v5.24h1.12v-11.21h-1.12v4.92h-6.09v-4.92h-1.12Zm14.35,11.4c2.34,0,4.21-1.83,4.21-4.2s-1.87-4.2-4.21-4.2-4.21,1.83-4.21,4.2,1.87,4.2,4.21,4.2Zm0-7.37c1.78,0,3.16,1.39,3.16,3.17s-1.38,3.17-3.16,3.17-3.16-1.39-3.16-3.17,1.38-3.17,3.16-3.17Zm12.35,4.93c0-.86-.45-1.55-1.31-1.87.62-.37.93-.98.93-1.75,0-1.22-.85-2.15-2.45-2.15h-3.57v8.01h3.89c1.7,0,2.51-1.01,2.51-2.24Zm-5.35-4.74h2.51c.91,0,1.39.45,1.39,1.18,0,.8-.46,1.25-1.39,1.25h-2.51v-2.43Zm0,3.46h2.84c.95,0,1.46.48,1.46,1.22,0,.8-.5,1.28-1.46,1.28h-2.84v-2.5Zm15.15-4.48h-1.06v8.01h1.06v-8.01Zm-7.05,3.04v-3.04h-1.06v8.01h3.25c1.46,0,2.67-1.01,2.67-2.48s-1.22-2.48-2.67-2.48h-2.19Zm3.81,2.48c0,.91-.75,1.46-1.62,1.46h-2.19v-2.91h2.19c.86,0,1.62.54,1.62,1.46Zm5.47-5.52v8.01h.9l4.77-6.16v6.16h1.06v-8.01h-.9l-4.77,6.16v-6.16h-1.06Zm1.28-2.21v.93h4.16v-.93h-4.16Zm18.16,10.22l-4.29-4.16,4.13-3.84h-1.44l-3.81,3.54v-3.54h-1.06v8.01h1.06v-3.86l4,3.86h1.41Zm8.37,0v-8.01h-5.73v4.6c0,2.03-.66,2.53-1.79,2.42v.99c1.6.11,2.85-.56,2.85-3.41v-3.57h3.62v6.98h1.06Zm8.95,0v-8.01h-.9l-4.77,6.16v-6.16h-1.06v8.01h.9l4.77-6.16v6.16h1.06Zm9.53-1.65l-.93-.54c-.43.77-1.31,1.36-2.58,1.36-1.7,0-2.96-1.01-3.19-2.64h7.03c.02-.16.03-.34.03-.5,0-2.19-1.52-4.23-3.97-4.23s-4.18,1.84-4.18,4.2,1.73,4.2,4.26,4.2c1.62,0,2.85-.75,3.52-1.84Zm-3.6-5.52c1.38,0,2.66.91,2.88,2.67h-5.97c.21-1.57,1.41-2.67,3.09-2.67Zm6.71-.83h-1.06v8.01h1.06v-3.49h4.61v3.49h1.06v-8.01h-1.06v3.49h-4.61v-3.49Zm10.8,8.01v-6.98h2.84v-1.02h-6.73v1.02h2.84v6.98h1.06Zm5.39-2.07l1.76-2.88-1.76-2.88h-1.31l1.76,2.88-1.76,2.88h1.31Zm1.25-5.76l1.76,2.88-1.76,2.88h1.31l1.76-2.88-1.76-2.88h-1.31ZM4.97,49.65H.96v11.21h1.12v-4.16h2.88c2.02,0,3.52-1.52,3.52-3.52s-1.51-3.52-3.52-3.52Zm0,5.99h-2.88v-4.93h2.88c1.39,0,2.4,1.02,2.4,2.47s-1.01,2.47-2.4,2.47Zm11.76,3.65v1.57h1.06v-8.01h-1.06v1.57c-.67-1.07-1.81-1.76-3.24-1.76-2.26,0-4.13,1.83-4.13,4.2s1.87,4.2,4.13,4.2c1.43,0,2.56-.69,3.24-1.76Zm-3.16.74c-1.78,0-3.16-1.39-3.16-3.17s1.38-3.17,3.16-3.17,3.16,1.39,3.16,3.17-1.38,3.17-3.16,3.17Zm13.74-1.06l-.88-.51c-.51.93-1.49,1.57-2.71,1.57-1.78,0-3.16-1.39-3.16-3.17s1.38-3.17,3.16-3.17c1.2,0,2.21.62,2.64,1.57l.86-.5c-.58-1.27-1.92-2.1-3.51-2.1-2.42,0-4.21,1.83-4.21,4.2s1.79,4.2,4.21,4.2c1.57,0,2.93-.82,3.59-2.08Zm6.67-2.13c-.7.3-1.52.46-2.32.46-1.38,0-2.13-.5-2.13-1.89v-2.56h-1.06v2.56c0,1.92,1.15,2.88,3.22,2.88.83,0,1.67-.16,2.29-.48v3.04h1.06v-8.01h-1.06v3.99Zm4.65-5.91c0,.4.32.72.72.72s.72-.32.72-.72-.32-.72-.72-.72-.72.32-.72.72Zm3.04,0c0,.4.32.72.72.72s.72-.32.72-.72-.32-.72-.72-.72-.72.32-.72.72Zm1.97,7.73c-.43.77-1.31,1.36-2.58,1.36-1.7,0-2.96-1.01-3.19-2.64h7.03c.02-.16.03-.34.03-.5,0-2.19-1.52-4.23-3.97-4.23s-4.18,1.84-4.18,4.2,1.73,4.2,4.26,4.2c1.62,0,2.85-.75,3.52-1.84l-.93-.54Zm-2.67-4.98c1.38,0,2.66.91,2.88,2.67h-5.97c.21-1.57,1.41-2.67,3.09-2.67Zm8.38,7.17v-6.98h2.84v-1.02h-6.73v1.02h2.84v6.98h1.06Zm14.14-5.86c0-1.22-.85-2.15-2.45-2.15h-3.57v8.01h3.89c1.7,0,2.51-1.01,2.51-2.24,0-.86-.45-1.55-1.31-1.87.62-.37.93-.98.93-1.75Zm-4.97-1.12h2.51c.91,0,1.39.45,1.39,1.18,0,.8-.46,1.25-1.39,1.25h-2.51v-2.43Zm4.29,4.68c0,.8-.5,1.28-1.46,1.28h-2.84v-2.5h2.84c.95,0,1.46.48,1.46,1.22Zm7.72-5.7h-1.06v8.01h1.06v-3.86l4,3.86h1.41l-4.29-4.16,4.13-3.84h-1.44l-3.81,3.54v-3.54Zm14.14,8.01v-8.01h-1.06v1.57c-.67-1.07-1.81-1.76-3.24-1.76-2.26,0-4.13,1.83-4.13,4.2s1.87,4.2,4.13,4.2c1.43,0,2.56-.69,3.24-1.76v1.57h1.06Zm-4.21-.83c-1.78,0-3.16-1.39-3.16-3.17s1.38-3.17,3.16-3.17,3.16,1.39,3.16,3.17-1.38,3.17-3.16,3.17Zm12.99.83v-8.01h-5.73v4.6c0,2.03-.66,2.53-1.79,2.42v.99c1.6.11,2.85-.56,2.85-3.41v-3.57h3.62v6.98h1.06Zm5.47-4.96h-2.19v-3.04h-1.06v8.01h3.25c1.46,0,2.67-1.01,2.67-2.48s-1.22-2.48-2.67-2.48Zm0,3.94h-2.19v-2.91h2.19c.86,0,1.62.54,1.62,1.46s-.75,1.46-1.62,1.46Zm10.59,1.02l-4.29-4.16,4.13-3.84h-1.44l-3.81,3.54v-3.54h-1.06v8.01h1.06v-3.86l4,3.86h1.41Zm1.95,2.21v.99c1.44.11,2.63-.93,3.24-2.47l3.43-8.74h-1.12l-2.59,6.71-3.01-6.71h-1.12l3.59,8.05-.21.5c-.43,1.04-1.15,1.78-2.19,1.67Zm14.05-2.21v-8.01h-5.73v4.6c0,2.03-.66,2.53-1.79,2.42v.99c1.6.11,2.85-.56,2.85-3.41v-3.57h3.62v6.98h1.06Zm7.88,0v-8.01h-3.25c-1.46,0-2.67,1.01-2.67,2.48,0,1.31.96,2.23,2.21,2.42l-2.53,3.11h1.35l2.47-3.07h1.38v3.07h1.06Zm-3.25-4.07c-.86,0-1.62-.54-1.62-1.46s.75-1.46,1.62-1.46h2.19v2.91h-2.19Zm11.22-3.94h-6.73v1.02h2.84v6.98h1.06v-6.98h2.84v-1.02Zm4.74,8.2c2.34,0,4.21-1.83,4.21-4.2s-1.87-4.2-4.21-4.2-4.21,1.83-4.21,4.2,1.87,4.2,4.21,4.2Zm0-7.37c1.78,0,3.16,1.39,3.16,3.17s-1.38,3.17-3.16,3.17-3.16-1.39-3.16-3.17,1.38-3.17,3.16-3.17Zm14.34,3.17c0-2.37-1.87-4.2-4.13-4.2-1.43,0-2.56.69-3.24,1.76v-1.57h-1.06v11.21h1.06v-4.77c.67,1.07,1.81,1.76,3.24,1.76,2.26,0,4.13-1.83,4.13-4.2Zm-4.21,3.17c-1.78,0-3.16-1.39-3.16-3.17s1.38-3.17,3.16-3.17,3.16,1.39,3.16,3.17-1.38,3.17-3.16,3.17Zm13.25-.82l-.93-.54c-.43.77-1.31,1.36-2.58,1.36-1.7,0-2.96-1.01-3.19-2.64h7.03c.02-.16.03-.34.03-.5,0-2.19-1.52-4.23-3.97-4.23s-4.18,1.84-4.18,4.2,1.73,4.2,4.26,4.2c1.62,0,2.85-.75,3.52-1.84Zm-3.6-5.52c1.38,0,2.66.91,2.88,2.67h-5.97c.21-1.57,1.41-2.67,3.09-2.67Zm10.71.19h4.61v6.98h1.06v-8.01h-6.73v8.01h1.06v-6.98Zm16.32,2.98c0-2.37-1.87-4.2-4.13-4.2-1.43,0-2.56.69-3.24,1.76v-1.57h-1.06v11.21h1.06v-4.77c.67,1.07,1.81,1.76,3.24,1.76,2.26,0,4.13-1.83,4.13-4.2Zm-7.37,0c0-1.78,1.38-3.17,3.16-3.17s3.16,1.39,3.16,3.17-1.38,3.17-3.16,3.17-3.16-1.39-3.16-3.17Zm16.77.03c0-2.19-1.52-4.23-3.97-4.23s-4.18,1.84-4.18,4.2,1.73,4.2,4.26,4.2c1.62,0,2.85-.75,3.52-1.84l-.93-.54c-.43.77-1.31,1.36-2.58,1.36-1.7,0-2.96-1.01-3.19-2.64h7.03c.02-.16.03-.34.03-.5Zm-7.06-.53c.21-1.57,1.41-2.67,3.09-2.67,1.38,0,2.66.91,2.88,2.67h-5.97Zm8.84,4.5h6.54v2.15h1.06v-3.17h-1.12v-6.98h-5.73v3.96c0,1.57-.3,2.35-.82,3.03h-.98v3.17h1.06v-2.15Zm1.79-4.05v-2.93h3.62v5.96h-4.21c.38-.77.59-1.71.59-3.03Zm13.75,1.81c0-.86-.45-1.55-1.31-1.87.62-.37.93-.98.93-1.75,0-1.22-.85-2.15-2.45-2.15h-3.57v8.01h3.89c1.7,0,2.51-1.01,2.51-2.24Zm-5.35-4.74h2.51c.91,0,1.39.45,1.39,1.18,0,.8-.46,1.25-1.39,1.25h-2.51v-2.43Zm0,3.46h2.84c.94,0,1.46.48,1.46,1.22,0,.8-.5,1.28-1.46,1.28h-2.84v-2.5Zm13.84,3.52h1.06v-8.01h-1.06v1.57c-.67-1.07-1.81-1.76-3.24-1.76-2.26,0-4.13,1.83-4.13,4.2s1.87,4.2,4.13,4.2c1.43,0,2.56-.69,3.24-1.76v1.57Zm-3.16-.83c-1.78,0-3.16-1.39-3.16-3.17s1.38-3.17,3.16-3.17,3.16,1.39,3.16,3.17-1.38,3.17-3.16,3.17Zm6.44,4.03h1.06v-4.77c.67,1.07,1.81,1.76,3.24,1.76,2.26,0,4.13-1.83,4.13-4.2s-1.87-4.2-4.13-4.2c-1.43,0-2.56.69-3.24,1.76v-1.57h-1.06v11.21Zm4.21-10.38c1.78,0,3.16,1.39,3.16,3.17s-1.38,3.17-3.16,3.17-3.16-1.39-3.16-3.17,1.38-3.17,3.16-3.17Zm7,5.33v-6.16h-1.06v8.01h.9l4.77-6.16v6.16h1.06v-8.01h-.9l-4.77,6.16Zm6.91-5.14h2.84v6.98h1.06v-6.98h2.84v-1.02h-6.73v1.02Zm11.46-1.22c-2.48,0-4.18,1.84-4.18,4.2s1.73,4.2,4.26,4.2c1.62,0,2.85-.75,3.52-1.84l-.93-.54c-.43.77-1.31,1.36-2.58,1.36-1.7,0-2.96-1.01-3.19-2.64h7.03c.02-.16.03-.34.03-.5,0-2.19-1.52-4.23-3.97-4.23Zm-3.09,3.7c.21-1.57,1.41-2.67,3.09-2.67,1.38,0,2.66.91,2.88,2.67h-5.97Zm9.5,1.09c0,2.03-.66,2.53-1.79,2.42v.99c1.6.11,2.85-.56,2.85-3.41v-3.57h3.62v6.98h1.06v-8.01h-5.73v4.6Zm11.21-1.55h-2.19v-3.04h-1.06v8.01h3.25c1.46,0,2.67-1.01,2.67-2.48s-1.22-2.48-2.67-2.48Zm0,3.94h-2.19v-2.91h2.19c.86,0,1.62.54,1.62,1.46s-.75,1.46-1.62,1.46Zm9.79-3.49h-4.61v-3.49h-1.06v8.01h1.06v-3.49h4.61v3.49h1.06v-8.01h-1.06v3.49Zm6.53-.45h-2.19v-3.04h-1.06v8.01h3.25c1.46,0,2.68-1.01,2.68-2.48s-1.22-2.48-2.68-2.48Zm0,3.94h-2.19v-2.91h2.19c.86,0,1.62.54,1.62,1.46s-.75,1.46-1.62,1.46Zm3.8,1.02h1.06v-8.01h-1.06v8.01Zm4.57-9.29h4.16v-.93h-4.16v.93Zm-.22,7.45v-6.16h-1.06v8.01h.9l4.77-6.16v6.16h1.06v-8.01h-.9l-4.77,6.16ZM1.86,78.23v-6.16H.8v8.01h.9l4.77-6.16v6.16h1.06v-8.01h-.9l-4.77,6.16Zm17.58-2.67h-4.61v-3.49h-1.06v8.01h1.06v-3.49h4.61v3.49h1.06v-8.01h-1.06v3.49Zm6.99-3.68c-2.48,0-4.18,1.84-4.18,4.2s1.73,4.2,4.26,4.2c1.62,0,2.85-.75,3.52-1.84l-.93-.54c-.43.77-1.31,1.36-2.58,1.36-1.7,0-2.96-1.01-3.19-2.64h7.03c.02-.16.03-.34.03-.5,0-2.19-1.52-4.23-3.97-4.23Zm-3.09,3.7c.21-1.57,1.41-2.67,3.09-2.67,1.38,0,2.66.91,2.88,2.67h-5.97Zm12.58-1.02c0,1.31.96,2.23,2.21,2.42l-2.53,3.11h1.35l2.47-3.07h1.38v3.07h1.06v-8.01h-3.25c-1.46,0-2.67,1.01-2.67,2.48Zm4.87,1.46h-2.19c-.86,0-1.62-.54-1.62-1.46s.75-1.46,1.62-1.46h2.19v2.91Zm8.37-.05c.62-.37.93-.98.93-1.75,0-1.22-.85-2.15-2.45-2.15h-3.57v8.01h3.89c1.7,0,2.51-1.01,2.51-2.24,0-.86-.45-1.55-1.31-1.87Zm-4.04-2.87h2.51c.91,0,1.39.45,1.39,1.18,0,.8-.46,1.25-1.39,1.25h-2.51v-2.43Zm2.84,5.96h-2.84v-2.5h2.84c.95,0,1.46.48,1.46,1.22,0,.8-.5,1.28-1.46,1.28Zm5.14-2.39c0,2.03-.66,2.53-1.79,2.42v.99c1.6.11,2.85-.56,2.85-3.41v-3.57h3.62v6.98h1.06v-8.01h-5.73v4.6Zm7.68-2.11c0,1.31.96,2.23,2.21,2.42l-2.53,3.11h1.35l2.47-3.07h1.38v3.07h1.06v-8.01h-3.25c-1.46,0-2.67,1.01-2.67,2.48Zm4.87,1.46h-2.19c-.86,0-1.62-.54-1.62-1.46s.75-1.46,1.62-1.46h2.19v2.91Zm6.99-4.13c-2.48,0-4.18,1.84-4.18,4.2s1.73,4.2,4.26,4.2c1.62,0,2.85-.75,3.52-1.84l-.93-.54c-.43.77-1.31,1.36-2.58,1.36-1.7,0-2.96-1.01-3.19-2.64h7.03c.02-.16.03-.34.03-.5,0-2.19-1.52-4.23-3.97-4.23Zm-3.09,3.7c.21-1.57,1.41-2.67,3.09-2.67,1.38,0,2.66.91,2.88,2.67h-5.97Zm7.58-2.48h2.84v6.98h1.06v-6.98h2.84v-1.02h-6.73v1.02Zm11.48,6.15c-1.78,0-3.16-1.39-3.16-3.17s1.38-3.17,3.16-3.17c1.2,0,2.21.62,2.64,1.57l.86-.5c-.58-1.26-1.92-2.1-3.51-2.1-2.42,0-4.21,1.83-4.21,4.2s1.79,4.2,4.21,4.2c1.57,0,2.93-.82,3.59-2.08l-.88-.51c-.51.93-1.49,1.57-2.71,1.57Zm4.82-4.69c0,1.31.96,2.23,2.21,2.42l-2.53,3.11h1.35l2.47-3.07h1.38v3.07h1.06v-8.01h-3.25c-1.46,0-2.67,1.01-2.67,2.48Zm4.87,1.46h-2.19c-.86,0-1.62-.54-1.62-1.46s.75-1.46,1.62-1.46h2.19v2.91Zm7.3,4.07h1.06v-6.98h4.61v6.98h1.06v-8.01h-6.73v8.01Zm12.1-1.3l-3.01-6.71h-1.12l3.59,8.05-.21.5c-.43,1.04-1.15,1.78-2.19,1.67v.99c1.44.11,2.63-.93,3.24-2.47l3.43-8.74h-1.12l-2.59,6.71Zm8.57-5.99c-.91,0-2.23.35-3.03,1.41.3-1.12.91-1.71,2.4-2.35,1.57-.69,3.24-1.14,3.49-2.74l-.83-.48c-.19,1.36-1.55,1.59-3.22,2.39-2.59,1.25-3.08,2.56-3.08,5.14s1.78,4.12,4.04,4.12,3.92-1.59,3.92-3.75-1.57-3.73-3.7-3.73Zm-.22,6.42c-1.63,0-2.92-1.15-2.92-2.79s1.6-2.61,3-2.61c1.7,0,2.79,1.14,2.79,2.71s-1.19,2.69-2.87,2.69Zm6.26-2.55c0,2.03-.66,2.53-1.79,2.42v.99c1.6.11,2.85-.56,2.85-3.41v-3.57h3.62v6.98h1.06v-8.01h-5.73v4.6Zm9.01,1.57v-6.16h-1.06v8.01h.9l4.77-6.16v6.16h1.06v-8.01h-.9l-4.77,6.16Zm12.98-2.18c-.7.3-1.52.46-2.32.46-1.38,0-2.13-.5-2.13-1.89v-2.56h-1.06v2.56c0,1.92,1.15,2.88,3.22,2.88.83,0,1.67-.16,2.29-.48v3.04h1.06v-8.01h-1.06v3.99Zm8.95-.5h-4.61v-3.49h-1.06v8.01h1.06v-3.49h4.61v3.49h1.06v-8.01h-1.06v3.49Zm6.99-3.68c-2.34,0-4.21,1.83-4.21,4.2s1.87,4.2,4.21,4.2,4.21-1.83,4.21-4.2-1.87-4.2-4.21-4.2Zm0,7.37c-1.78,0-3.16-1.39-3.16-3.17s1.38-3.17,3.16-3.17,3.16,1.39,3.16,3.17-1.38,3.17-3.16,3.17Zm7.19-8.45h4.16v-.93h-4.16v.93Zm-.22,7.45v-6.16h-1.06v8.01h.9l4.77-6.16v6.16h1.06v-8.01h-.9l-4.77,6.16Zm15.64-6.36c-2.34,0-4.21,1.83-4.21,4.2s1.87,4.2,4.21,4.2,4.21-1.83,4.21-4.2-1.87-4.2-4.21-4.2Zm0,7.37c-1.78,0-3.16-1.39-3.16-3.17s1.38-3.17,3.16-3.17,3.16,1.39,3.16,3.17-1.38,3.17-3.16,3.17Zm10.72-7.35v-3.03h-1.06v3.03c-2.55.22-4.2,1.95-4.2,4.18s1.65,3.96,4.2,4.18v3.03h1.06v-3.03c2.55-.22,4.2-1.95,4.2-4.18s-1.65-3.95-4.2-4.18Zm-1.06,7.32c-1.97-.19-3.14-1.51-3.14-3.14s1.17-2.95,3.14-3.14v6.28Zm1.06,0v-6.28c1.97.19,3.14,1.51,3.14,3.14s-1.17,2.95-3.14,3.14Zm9.63-7.33c-2.48,0-4.18,1.84-4.18,4.2s1.73,4.2,4.26,4.2c1.62,0,2.85-.75,3.52-1.84l-.93-.54c-.43.77-1.31,1.36-2.58,1.36-1.7,0-2.96-1.01-3.19-2.64h7.03c.02-.16.03-.34.03-.5,0-2.19-1.52-4.23-3.97-4.23Zm-3.09,3.7c.21-1.57,1.41-2.67,3.09-2.67,1.38,0,2.66.91,2.88,2.67h-5.97Zm13.04-3.7c-1.43,0-2.56.69-3.24,1.76v-1.57h-1.06v11.21h1.06v-4.77c.67,1.07,1.81,1.76,3.24,1.76,2.26,0,4.13-1.83,4.13-4.2s-1.87-4.2-4.13-4.2Zm-.08,7.37c-1.78,0-3.16-1.39-3.16-3.17s1.38-3.17,3.16-3.17,3.16,1.39,3.16,3.17-1.38,3.17-3.16,3.17Zm4.75-6.15h2.84v6.98h1.06v-6.98h2.84v-1.02h-6.73v1.02Zm11.47-1.22c-2.34,0-4.21,1.83-4.21,4.2s1.87,4.2,4.21,4.2,4.21-1.83,4.21-4.2-1.87-4.2-4.21-4.2Zm0,7.37c-1.78,0-3.16-1.39-3.16-3.17s1.38-3.17,3.16-3.17,3.16,1.39,3.16,3.17-1.38,3.17-3.16,3.17Zm7.19-8.45h4.16v-.93h-4.16v.93Zm-.22,7.45v-6.16h-1.06v8.01h.9l4.77-6.16v6.16h1.06v-8.01h-.9l-4.77,6.16Z"/>
  </g>
</svg>