<?xml version="1.0" encoding="UTF-8"?>
<svg id="_Слой_2" data-name="Слой 2" xmlns="http://www.w3.org/2000/svg" viewBox="0 0 654.93 131.07">
  <defs>
    <style>
      .cls-1 {
        fill: #fff;
        stroke-width: 0px;
      }
    </style>
  </defs>
  <g id="TEXT_UTP">
    <path class="cls-1" d="m27.45,22.46c2.62-2.11,4.22-5.12,4.22-8.96,0-7.49-6.08-12.61-13.63-12.61H.38v44.8h19.01c7.74,0,13.95-5.31,13.95-12.99,0-4.67-2.3-8.19-5.89-10.24ZM9.22,9.15h8.83c2.82,0,4.8,2.11,4.8,4.93s-2.05,4.93-4.8,4.93h-8.83v-9.86Zm10.18,28.29h-10.18v-10.56h10.18c3.01,0,5.18,2.24,5.18,5.25s-2.18,5.31-5.18,5.31Zm27.12-6.27l11.65,14.53h9.6l-13.25-16.19,12.86-15.81h-9.86l-11.01,14.08v-14.08h-8.26v32h8.26v-14.53Zm53.58,14.53V13.7h-25.34v18.17c0,4.99-1.86,6.91-5.25,6.08v7.74c8.64.96,13.5-3.26,13.5-13.38v-10.69h8.83v24.06h8.26Zm20.51.9c4.67,0,8.13-1.79,10.43-4.67v3.78h8.26V13.7h-8.26v3.78c-2.3-2.88-5.76-4.67-10.43-4.67-8.51,0-15.55,7.36-15.55,16.89s7.04,16.89,15.55,16.89Zm1.54-25.92c5.12,0,8.9,3.65,8.9,9.02s-3.78,9.02-8.9,9.02-8.83-3.65-8.83-9.02,3.78-9.02,8.83-9.02Zm29.1,25.02h19.84v8.58h8.06v-16.32h-4.22V13.7h-25.09v12.93c0,5.7-1.02,8.77-2.75,11.33h-3.9v16.32h8.06v-8.58Zm6.66-19.07v-5.5h8.96v16.83h-10.94c1.28-2.94,1.98-6.53,1.98-11.33Zm75.52,27.65v-16.32h-4.22V13.7h-25.09v12.93c0,5.7-1.02,8.77-2.75,11.33h-3.9v16.32h8.06v-8.58h19.84v8.58h8.06Zm-12.29-16.32h-10.94c1.28-2.94,1.98-6.53,1.98-11.33v-5.5h8.96v16.83Zm48.32-8.26c0-9.54-7.55-16.89-16.96-16.89s-16.89,7.36-16.89,16.89,7.49,16.89,16.89,16.89,16.96-7.36,16.96-16.89Zm-25.6,0c0-5.18,3.78-8.83,8.64-8.83s8.7,3.65,8.7,8.83-3.78,8.83-8.7,8.83-8.64-3.65-8.64-8.83Zm54.98,16h8.83V.9h-7.68l-11.78,4.16,2.18,7.55,8.45-2.37v35.45Zm46.24-14.72c0-8.96-6.4-15.29-15.68-15.55l9.92-14.53h-10.11l-13.95,21.05c-1.66,2.5-2.62,5.57-2.62,9.02,0,9.15,6.59,15.61,16.19,15.61s16.25-6.46,16.25-15.61Zm-16.25,7.3c-4.16,0-7.42-2.75-7.42-7.3s3.26-7.23,7.42-7.23,7.49,2.75,7.49,7.23-3.33,7.3-7.49,7.3Zm27.99-17.15c6.21,0,10.75-4.67,10.75-10.56s-4.61-10.56-10.75-10.56-10.82,4.74-10.82,10.56,4.61,10.56,10.82,10.56Zm-.06-14.59c2.37,0,4.03,1.79,4.03,4.03s-1.66,4.1-4.03,4.1-3.97-1.79-3.97-4.1,1.66-4.03,3.97-4.03Zm21.69,39.93c6.21,0,10.75-4.74,10.75-10.56s-4.54-10.56-10.75-10.56-10.75,4.74-10.75,10.56,4.54,10.56,10.75,10.56Zm0-14.65c2.37,0,3.97,1.79,3.97,4.1,0,2.18-1.6,4.1-3.97,4.1s-3.97-1.79-3.97-4.1,1.6-4.1,3.97-4.1Zm-24.06,9.34l29.25-32.51-3.9-2.18-29.18,32.45,3.84,2.24Zm57.47,4.54h8.26v-24.06h13.63v-7.94h-21.89v32Zm40.54.9c9.41,0,16.96-7.36,16.96-16.89s-7.55-16.89-16.96-16.89-16.89,7.36-16.89,16.89,7.49,16.89,16.89,16.89Zm0-25.73c4.93,0,8.7,3.65,8.7,8.83s-3.78,8.83-8.7,8.83-8.64-3.65-8.64-8.83,3.78-8.83,8.64-8.83Zm50.52-7.17h-25.09v12.93c0,5.7-1.02,8.77-2.75,11.33h-3.9v16.32h8.06v-8.58h19.84v8.58h8.06v-16.32h-4.22V13.7Zm-8.06,24.25h-10.94c1.28-2.94,1.98-6.53,1.98-11.33v-5.5h8.96v16.83Zm31.36-25.15c-9.41,0-16.89,7.36-16.89,16.89s7.49,16.89,16.89,16.89,16.96-7.36,16.96-16.89-7.55-16.89-16.96-16.89Zm0,25.73c-4.86,0-8.64-3.65-8.64-8.83s3.78-8.83,8.64-8.83,8.7,3.65,8.7,8.83-3.78,8.83-8.7,8.83Zm44.96-9.22c2.05-1.54,3.14-3.78,3.14-6.59,0-5.25-3.71-9.02-10.62-9.02h-15.55v32h16.83c7.04,0,10.69-3.9,10.69-9.09,0-3.33-1.6-5.89-4.48-7.3Zm-15.29-8.83h7.04c2.24,0,3.52.96,3.52,2.88s-1.28,2.88-3.52,2.88h-7.04v-5.76Zm8.13,18.24h-8.13v-5.95h8.13c2.18,0,3.58,1.02,3.58,2.88,0,1.98-1.34,3.07-3.58,3.07Zm30.9-14.78h-6.21v-10.24h-8.26v32h14.46c7.3,0,12.1-4.35,12.1-10.88s-4.8-10.88-12.1-10.88Zm.06,14.46h-6.27v-7.23h6.27c2.3,0,3.97,1.47,3.97,3.65s-1.66,3.58-3.97,3.58Zm15.55,7.3h8.26V13.7h-8.26v32Zm32.71-16.38l11.2-15.61h-9.47l-6.46,9.02-6.46-9.02h-9.54l11.2,15.68-11.71,16.32h9.54l6.98-9.73,6.91,9.73h9.54l-11.71-16.38ZM20.99,102.59h-12.73v-12.1H0v32h8.26v-12.16h12.73v12.16h8.26v-32h-8.26v12.1Zm39.23-8.32c-2.3-2.88-5.76-4.67-10.43-4.67-8.51,0-15.55,7.36-15.55,16.89s7.04,16.89,15.55,16.89c4.67,0,8.13-1.79,10.43-4.67v3.78h8.26v-32h-8.26v3.78Zm-8.9,21.25c-5.06,0-8.83-3.65-8.83-9.02s3.78-9.02,8.83-9.02,8.9,3.65,8.9,9.02-3.78,9.02-8.9,9.02Zm61.63-12.93h-12.73v-12.1h-8.26v32h8.26v-12.16h12.73v12.16h8.26v-32h-8.26v12.1Zm30.02-12.99c-9.41,0-16.89,7.36-16.89,16.89s7.49,16.89,16.89,16.89,16.96-7.36,16.96-16.89-7.55-16.89-16.96-16.89Zm0,25.73c-4.86,0-8.64-3.65-8.64-8.83s3.78-8.83,8.64-8.83,8.7,3.65,8.7,8.83-3.78,8.83-8.7,8.83Zm44.96-9.22c2.05-1.54,3.14-3.78,3.14-6.59,0-5.25-3.71-9.02-10.62-9.02h-15.55v32h16.83c7.04,0,10.69-3.9,10.69-9.09,0-3.33-1.6-5.89-4.48-7.3Zm-15.29-8.83h7.04c2.24,0,3.52.96,3.52,2.88s-1.28,2.88-3.52,2.88h-7.04v-5.76Zm8.13,18.24h-8.13v-5.95h8.13c2.18,0,3.58,1.02,3.58,2.88,0,1.98-1.34,3.07-3.58,3.07Zm30.9-14.78h-6.21v-10.24h-8.26v32h14.46c7.3,0,12.1-4.35,12.1-10.88s-4.8-10.88-12.1-10.88Zm.06,14.46h-6.27v-7.23h6.27c2.3,0,3.97,1.47,3.97,3.65s-1.66,3.58-3.97,3.58Zm15.55,7.3h8.26v-32h-8.26v32Zm30.18-32.89c-10.05,0-16.89,7.36-16.89,16.89s6.78,16.89,17.53,16.89c6.14,0,10.94-2.5,13.95-6.85l-6.66-3.84c-1.41,1.86-3.97,3.2-7.17,3.2-4.35,0-7.87-1.79-9.02-6.02h24.13c.19-1.09.32-2.18.32-3.39,0-9.41-6.72-16.89-16.19-16.89Zm-8.38,13.89c.96-4.1,3.97-6.46,8.38-6.46,3.46,0,6.91,1.86,7.94,6.46h-16.32Zm75.13-12.99h-25.09v12.93c0,5.7-1.02,8.77-2.75,11.33h-3.9v16.32h8.06v-8.58h19.84v8.58h8.06v-16.32h-4.22v-24.25Zm-8.06,24.25h-10.94c1.28-2.94,1.98-6.53,1.98-11.33v-5.5h8.96v16.83Zm31.39-25.15c-10.05,0-16.89,7.36-16.89,16.89s6.78,16.89,17.53,16.89c6.14,0,10.94-2.5,13.95-6.85l-6.66-3.84c-1.41,1.86-3.97,3.2-7.17,3.2-4.35,0-7.87-1.79-9.02-6.02h24.13c.19-1.09.32-2.18.32-3.39,0-9.41-6.72-16.89-16.19-16.89Zm-8.38,13.89c.96-4.1,3.97-6.46,8.38-6.46,3.46,0,6.91,1.86,7.94,6.46h-16.32Zm50.5-.9h-12.74v-12.1h-8.26v32h8.26v-12.16h12.74v12.16h8.26v-32h-8.26v12.1Zm29.48-1.86h-6.21v-10.24h-8.26v32h14.46c7.3,0,12.1-4.35,12.1-10.88s-4.8-10.88-12.1-10.88Zm.06,14.46h-6.27v-7.23h6.27c2.3,0,3.97,1.47,3.97,3.65s-1.66,3.58-3.97,3.58Zm15.87,7.3h8.26v-24.06h13.63v-7.94h-21.89v32Zm33.23-13.82v-18.17h-8.06v32h6.14l15.04-18.17v18.17h8.06v-32h-6.14l-15.04,18.17Z"/>
  </g>
</svg>