<?xml version="1.0" encoding="UTF-8"?>
<svg id="_Слой_2" data-name="Слой 2" xmlns="http://www.w3.org/2000/svg" viewBox="0 0 194.16 20.52">
  <defs>
    <style>
      .cls-1 {
        fill: #fff;
        stroke-width: 0px;
      }
    </style>
  </defs>
  <g id="text_cta">
    <path class="cls-1" d="m12.01.53l-3.86,9.46L3.86.53H0l6.41,13.69c-.81,1.65-1.99,2.49-4.14,2.3v3.61c3.5.2,6.1-1.46,7.73-5.4L15.88.53h-3.86Zm12.59,12.46c1.04-.7,1.54-1.79,1.54-3.08,0-2.21-1.9-4.17-5.24-4.17-2.46,0-4.4,1.09-5.46,3.22l2.91,1.68c.53-1.2,1.4-1.76,2.6-1.76,1.06,0,1.74.53,1.74,1.34s-.56,1.29-1.62,1.29h-1.51v3.08h1.99c1.09,0,1.65.5,1.65,1.29,0,.9-.76,1.46-2.1,1.46-1.54,0-2.46-.73-2.88-1.9l-2.94,1.74c.98,2.16,2.88,3.36,5.8,3.36,3.72,0,5.66-1.93,5.66-4.2,0-1.46-.76-2.66-2.13-3.33Zm13.65-1.57h-5.57v-5.29h-3.61v14h3.61v-5.32h5.57v5.32h3.61V6.13h-3.61v5.29Zm17.42-3.64c-1.01-1.26-2.52-2.04-4.56-2.04-3.72,0-6.8,3.22-6.8,7.39s3.08,7.39,6.8,7.39c2.04,0,3.56-.78,4.56-2.04v1.65h3.61V6.13h-3.61v1.65Zm-3.89,9.3c-2.21,0-3.86-1.6-3.86-3.95s1.65-3.95,3.86-3.95,3.89,1.6,3.89,3.95-1.65,3.95-3.89,3.95Zm9.22-7.48h4.42v10.53h3.61v-10.53h4.37v-3.47h-12.4v3.47Zm20.45,1.01h-2.72v-4.48h-3.61v14h6.33c3.19,0,5.29-1.9,5.29-4.76s-2.1-4.76-5.29-4.76Zm.03,6.33h-2.74v-3.16h2.74c1.01,0,1.74.64,1.74,1.6s-.73,1.57-1.74,1.57Zm22.26-9.18c-1.48,0-3.08.45-4.2,1.6.45-1.23,1.26-2.1,3.78-3.08,2.91-1.12,4.93-2.1,5.46-4.56l-2.97-1.71c-.7,2.1-2.21,2.46-5.18,3.92-4.51,2.21-5.35,4.56-5.35,9.07s2.88,7.53,7.36,7.53,7.06-2.8,7.06-6.58-3.08-6.19-5.96-6.19Zm-1.12,9.46c-1.99,0-3.56-1.4-3.56-3.39s1.82-3.19,3.53-3.19c2.07,0,3.5,1.4,3.5,3.3s-1.43,3.28-3.47,3.28Zm15.96-11.48c-4.12,0-7.39,3.22-7.39,7.39s3.28,7.39,7.39,7.39,7.42-3.22,7.42-7.39-3.3-7.39-7.42-7.39Zm0,11.26c-2.13,0-3.78-1.6-3.78-3.86s1.65-3.86,3.78-3.86,3.81,1.6,3.81,3.86-1.65,3.86-3.81,3.86Zm10.74-2.91c0,2.18-.81,3.02-2.3,2.66v3.39c3.78.42,5.91-1.43,5.91-5.85v-4.68h3.86v10.53h3.61V6.13h-11.09v7.95Zm20.62-3.47h-2.72v-4.48h-3.61v14h6.33c3.19,0,5.29-1.9,5.29-4.76s-2.1-4.76-5.29-4.76Zm.03,6.33h-2.74v-3.16h2.74c1.01,0,1.74.64,1.74,1.6s-.73,1.57-1.74,1.57Zm23.62-.2h-4.59V6.13h-3.61v10.61h-4.59V6.13h-3.61v14h20.02V6.13h-3.61v10.61Zm20.56-3.61c0-4.12-2.94-7.39-7.08-7.39-4.4,0-7.39,3.22-7.39,7.39s2.97,7.39,7.67,7.39c2.69,0,4.79-1.09,6.1-3l-2.91-1.68c-.62.81-1.74,1.4-3.14,1.4-1.9,0-3.44-.78-3.95-2.63h10.56c.08-.48.14-.95.14-1.48Zm-10.75-1.32c.42-1.79,1.74-2.83,3.67-2.83,1.51,0,3.02.81,3.47,2.83h-7.14Z"/>
  </g>
</svg>